# xmcd
#
# Track frame offsets: 
#        150
#        11342
#        21887
#        33972
#        46201
#        56224
#        68259
#        80352
#        91360
#        103830
#        117701
#        129502
#        142059
#        153662
#        166226
#        178512
#        189628
#        199390
#        210412
#        221753
#        234186
#        245631
#        255345
#        267115
#
# Disc length: 3708 seconds
#
# Revision: 0
# Processed by: cddbd v1.5.2PL0 Copyright (c) Steve Scherf et al.
# Submitted via: ExactAudioCopyFreeDBPlugin 1.0
#
DISCID=500e7a18
DTITLE=Various Artist - Juicy Harmonica 2
DYEAR=2010
DGENRE=Blues
TTITLE0=Birminghan Junior and His Lover Boys - You're Too Bad
TTITLE1=Litlle Sammy Davis - 1958 Blues
TTITLE2=Little Willy Foster - Fallin' Rain Blues
TTITLE3=Earl Hooker - Alley Corn
TTITLE4=Little Sammy Davis - She's So Good To Me
TTITLE5=Little Sammy Davis - Goin' To New Orleans
TTITLE6=Willie Nix - Truckin' Little Woman
TTITLE7=Robert Henry - Old Battle Ax
TTITLE8=Sonny Boy Williamson - Opossum Rock'
TTITLE9=Willie Nix - Just One Mistake
TTITLE10=Robert Henry - Early In The Morning
TTITLE11=Baby Face - Red Headed Woman
TTITLE12=Papa Lightfoot - After Awhile
TTITLE13=Woodrow Adams - Don't You Know I Love You
TTITLE14=Little Luther - Du Dee Squat
TTITLE15=Little Red Walter - Ah Shucks Baby
TTITLE16=James Cotton - Complete This Order
TTITLE17=James Cotton - Laying In The Weeds
TTITLE18=Papa Lightfoot - Mean Old Train
TTITLE19=Percy Lee Crudup - Open Your Book
TTITLE20=Walter J. Westbrook and His Phantom Five - Midnight Jump
TTITLE21=Woodrow Adams - I Love You O Yes I Do
TTITLE22=Little Sammy Davis - Goin' Home To Mother
TTITLE23=Biringham Junior and His Lover Boys - Birmingham Late Hours
EXTD=
EXTT0=
EXTT1=
EXTT2=
EXTT3=
EXTT4=
EXTT5=
EXTT6=
EXTT7=
EXTT8=
EXTT9=
EXTT10=
EXTT11=
EXTT12=
EXTT13=
EXTT14=
EXTT15=
EXTT16=
EXTT17=
EXTT18=
EXTT19=
EXTT20=
EXTT21=
EXTT22=
EXTT23=
PLAYORDER=
